# xmcd
#
# Track frame offsets: 
#        150
#        14552
#        28684
#        40083
#        53894
#        66506
#        78960
#        92795
#        105639
#        117807
#        131828
#        143984
#        159254
#        172597
#        185193
#        201492
#        213495
#        225996
#        238848
#        251736
#        262734
#        277148
#        290023
#        303771
#        316315
#
# Disc length: 4371 seconds
#
# Revision: 3
# Processed by: cddbd v1.5.2PL0 Copyright (c) Steve Scherf et al.
# Submitted via: ExactAudioCopy v1.2
#
DISCID=6c111119
DTITLE=Various Artist - The Rough Guide to Jug Band Blues (Reborn and Remaste
DTITLE=red)
DYEAR=2017
DGENRE=Blues
TTITLE0=Memphis Sheiks - He's in the Jailhouse  Now
TTITLE1=Whistler and His Jug Band - The Jug Band Special
TTITLE2=Cannon's Jug Stompers - Going to German
TTITLE3=Birmingham Jug Band - Giving it Away
TTITLE4=Earl McDonald'S Original Louisville Jug Band - Casey Bill
TTITLE5=Tampa Red'S Hokum Jug Band - It's Tight Like That
TTITLE6=Carolina Peanut Boys - This Will Bring You Back
TTITLE7=Daddy Stovepipe and Mississippi Sarah - The Spasm
TTITLE8=Minnie Wallace - The Old Folks Started It
TTITLE9=King David's Jug Band - What's That Taste Like Gravy
TTITLE10=Seven Gallon Jug Band - Wipe 'Em Off
TTITLE11=Memphis Minnie And Her Jug Band - Grandpa and Grandma Blues
TTITLE12=Memphis Jug Band - Stealin' Stealin'
TTITLE13=Bob Coleman and Cincinnati Jug Band - Tear It Down
TTITLE14=Clifford's Louisville Jug Band - Mammy O'Mine Blues
TTITLE15=Noah Lewis' Jug Band - Ticket Agent Blues
TTITLE16=Jimmie Rodgers and The Louisville Jug Band - My Good Gal's Gone
TTITLE16=Blues
TTITLE17=Jed Davenport And His Beale Street Jug Band - Beale Street Br
TTITLE17=eakdown
TTITLE18=Bill Johnson's Louisiana Jug Band - Don't Drink It In Here
TTITLE19=Picaninny Jug Band - Bottle It Up And Go
TTITLE20=Dixieland Jug Blowers - Banjoreno
TTITLE21=Prairie Ramblers - Jug Rag
TTITLE22=Jack Kelly And His South Memphis Jug Band - Red Ripe Tomatos
TTITLE23=Old Southern Jug Band - Blues, Just Blues, That's All
TTITLE24=Alabama Jug Band - Sugar Blues
EXTD=
EXTT0=
EXTT1=
EXTT2=
EXTT3=
EXTT4=
EXTT5=
EXTT6=
EXTT7=
EXTT8=
EXTT9=
EXTT10=
EXTT11=
EXTT12=
EXTT13=
EXTT14=
EXTT15=
EXTT16=
EXTT17=
EXTT18=
EXTT19=
EXTT20=
EXTT21=
EXTT22=
EXTT23=
EXTT24=
PLAYORDER=
